HIERARCHY
ROOT Hips
{
	OFFSET 0.000000 0.000000 0.000000 
	CHANNELS 6 Xposition Yposition Zposition Zrotation Yrotation Xrotation
	JOINT LeftUpLeg
	{
		OFFSET 1.363060 -1.794630 0.839290 
		CHANNELS 3 Zrotation Yrotation Xrotation
		JOINT LeftLeg
		{
			OFFSET 2.448110 -6.726130 0.000000 
			CHANNELS 3 Zrotation Yrotation Xrotation
			JOINT LeftFoot
			{
				OFFSET 2.562200 -7.039590 0.000000 
				CHANNELS 3 Zrotation Yrotation Xrotation
				JOINT LeftToeBase
				{
					OFFSET 0.157640 -0.433110 2.322550 
					CHANNELS 3 Zrotation Yrotation Xrotation
					End Site
					{
						OFFSET 0.000000 0.000000 0.000000 
					}
				}
			}
		}
	}
	JOINT RightUpLeg
	{
		OFFSET -1.305520 -1.794630 0.839290 
		CHANNELS 3 Zrotation Yrotation Xrotation
		JOINT RightLeg
		{
			OFFSET -2.542530 -6.985550 0.000000 
			CHANNELS 3 Zrotation Yrotation Xrotation
			JOINT RightFoot
			{
				OFFSET -2.568260 -7.056230 0.000000 
				CHANNELS 3 Zrotation Yrotation Xrotation
				JOINT RightToeBase
				{
					OFFSET -0.164730 -0.452590 2.363150 
					CHANNELS 3 Zrotation Yrotation Xrotation
					End Site
					{
						OFFSET 0.000000 0.000000 0.000000 
					}
				}
			}
		}
	}
	JOINT Spine
	{
		OFFSET 0.028270 2.035590 -0.193380 
		CHANNELS 3 Zrotation Yrotation Xrotation
		JOINT Spine1
		{
			OFFSET 0.056720 2.048850 -0.042750 
			CHANNELS 3 Zrotation Yrotation Xrotation
			JOINT Neck1
			{
				OFFSET -0.054170 1.746240 0.172020 
				CHANNELS 3 Zrotation Yrotation Xrotation
				JOINT Head
				{
					OFFSET 0.104070 1.761360 -0.123970 
					CHANNELS 3 Zrotation Yrotation Xrotation
					End Site
					{
						OFFSET 0.000000 0.000000 0.000000 
					}
				}
			}
			JOINT LeftArm
			{
				OFFSET 3.362410 1.200890 -0.311210 
				CHANNELS 3 Zrotation Yrotation Xrotation
				JOINT LeftForeArm
				{
					OFFSET 4.983000 -0.000000 -0.000000 
					CHANNELS 3 Zrotation Yrotation Xrotation
					JOINT LeftHand
					{
						OFFSET 3.483560 -0.000000 -0.000000 
						CHANNELS 3 Zrotation Yrotation Xrotation
						JOINT LeftHandIndex1
						{
							OFFSET 0.715260 -0.000000 -0.000000 
							CHANNELS 3 Zrotation Yrotation Xrotation
							End Site
							{
								OFFSET 0.000000 0.000000 0.000000 
							}
						}
					}
				}
			}
			JOINT RightArm
			{
				OFFSET -3.136600 1.374050 -0.404650 
				CHANNELS 3 Zrotation Yrotation Xrotation
				JOINT RightForeArm
				{
					OFFSET -5.241900 -0.000000 -0.000000 
					CHANNELS 3 Zrotation Yrotation Xrotation
					JOINT RightHand
					{
						OFFSET -3.444170 -0.000000 -0.000000 
						CHANNELS 3 Zrotation Yrotation Xrotation
						JOINT RightHandIndex1
						{
							OFFSET -0.622530 -0.000000 -0.000000 
							CHANNELS 3 Zrotation Yrotation Xrotation
							End Site
							{
								OFFSET 0.000000 0.000000 0.000000 
							}
						}
					}
				}
			}
		}
	}
}
MOTION
Frames: 10
Frame Time: 0.041667
11.030943 17.719872 -8.329282 -1.449734 -5.066334 12.318828 -18.035781 -8.161466 -4.560121 -0.924659 1.375084 5.392169 0.348782 -2.554086 -6.965310 8.473000 -16.456400 -54.249000 22.281610 7.235957 -2.598229 0.966717 -0.715603 6.407167 -0.220869 0.603610 -8.698305 -3.521000 11.494100 -33.964900 0.434711 -0.812373 -5.790003 2.045007 -0.366846 2.358439 7.149981 -13.881577 7.829184 2.755000 -6.769300 3.946500 -81.311502 5.493388 31.752272 35.055661 -43.994369 -16.316451 0.188555 1.408585 27.813937 -7.125000 0.000000 0.000000 75.110907 -9.590860 26.240998 -46.893220 55.006011 -24.891870 2.197721 -1.252787 29.300060 7.125000 0.000000 0.000000 
11.011718 17.717700 -8.324177 -1.606197 -4.943738 12.413758 -17.742246 -8.259784 -4.660892 -0.921517 1.400414 5.449332 0.356187 -2.622417 -6.969098 8.368100 -16.383500 -53.878100 22.599243 7.481798 -2.596025 0.978816 -0.749617 6.481486 -0.214590 0.357909 -8.843237 -3.622000 11.639600 -34.468800 0.451924 -0.851679 -5.814310 1.892439 -0.392654 2.372663 7.087934 -13.836551 8.016421 2.701400 -6.743200 4.043600 -81.367211 3.982877 30.737492 28.750211 -39.379350 -12.034194 0.258130 1.350426 27.675205 -7.125000 0.000000 0.000000 75.435590 -8.813466 25.101729 -40.064199 52.001862 -20.360125 2.035269 -1.257327 29.540885 7.125000 0.000000 0.000000 
10.994665 17.715310 -8.315379 -1.638455 -4.913804 12.506520 -17.634002 -8.297372 -4.710659 -0.918831 1.405051 5.457149 0.360949 -2.714705 -6.914841 8.193400 -16.259700 -53.256200 22.734272 7.709495 -2.639661 0.979078 -0.814431 6.634285 -0.222261 0.245174 -9.042728 -3.602500 11.611700 -34.371900 0.437143 -0.776602 -5.812107 1.701260 -0.375338 2.512145 6.786093 -13.928335 8.252420 2.489000 -6.782200 4.154400 -81.311604 2.305327 29.551370 22.760841 -34.120150 -8.452487 0.332284 1.337622 28.515770 -7.125000 0.000000 0.000000 75.706161 -8.107719 23.842129 -33.931939 48.679572 -16.555157 1.870269 -1.280247 30.282877 7.125000 0.000000 0.000000 
10.981305 17.722153 -8.325371 -1.355359 -4.921341 12.639253 -17.874886 -8.399062 -5.019063 -0.909224 1.490371 5.668389 0.363882 -2.785084 -6.871823 8.102900 -16.194400 -52.932600 22.419848 7.909393 -3.039523 0.955893 -0.957985 6.958545 -0.231985 0.204816 -9.191061 -3.552200 11.539400 -34.121400 0.409916 -0.735749 -5.848292 1.712687 -0.350020 2.350637 7.233917 -13.797430 7.820547 2.779700 -6.725800 3.935600 -81.362253 0.732617 27.622177 17.238571 -28.415654 -5.546916 0.423209 1.227267 30.552061 -7.125000 0.000000 0.000000 75.728199 -7.615328 22.876239 -28.612081 45.318826 -13.547191 1.710100 -1.242703 29.997842 7.125000 0.000000 0.000000 
10.974570 17.727801 -8.318528 -1.275668 -4.918094 12.777473 -17.963033 -8.538999 -5.128464 -0.908709 1.516479 5.731396 0.368816 -2.793954 -6.943842 8.037300 -16.146700 -52.697100 22.280473 7.528183 -3.454911 0.922942 -1.036881 7.135310 -0.259409 0.673958 -9.089515 -3.547600 11.532800 -34.098500 0.416319 -0.774443 -5.896732 1.654769 -0.366977 2.294032 7.296574 -13.706244 7.843004 2.832100 -6.684200 3.948600 -81.498093 -0.693902 24.304106 12.126385 -22.532857 -3.427994 0.483129 1.219690 33.519618 -7.125000 0.000000 0.000000 75.628702 -7.075272 21.878361 -23.550795 41.639716 -10.894485 1.551862 -1.213949 29.598671 7.125000 0.000000 0.000000 
10.958169 17.717483 -8.296805 -1.075914 -5.006838 12.506440 -18.242364 -8.565142 -4.643716 -0.913485 1.468415 5.635741 0.378282 -2.805682 -7.134608 7.955700 -16.086600 -52.403100 22.066097 7.028239 -3.115932 0.916034 -0.931342 6.936870 -0.270807 1.029079 -8.929252 -3.605600 11.616300 -34.387600 0.418848 -0.807157 -5.885544 1.714990 -0.392193 2.320230 7.393317 -13.618574 7.771832 2.888600 -6.642700 3.905200 -81.600398 -2.015247 18.544937 7.406631 -16.585266 -1.936593 0.550683 1.204059 38.577143 -7.125000 0.000000 0.000000 75.564663 -6.320871 20.159580 -18.573634 37.534377 -8.566435 1.393052 -1.212207 31.508964 7.125000 0.000000 0.000000 
10.938509 17.708467 -8.276276 -1.146716 -5.091231 12.361343 -18.134258 -8.521200 -4.320866 -0.919657 1.425163 5.537930 0.386610 -2.764513 -7.332370 7.997000 -16.117000 -52.551800 22.232091 6.862959 -2.756291 0.928014 -0.831092 6.728599 -0.275275 1.156010 -8.886308 -3.630400 11.651700 -34.510600 0.447307 -0.845394 -5.868691 1.740942 -0.423731 2.458512 7.390264 -13.526654 7.818311 2.866400 -6.593000 3.936300 -81.772084 -3.240972 6.954062 3.301423 -10.785981 -1.003899 0.708799 1.094337 49.053477 -7.125000 0.000000 0.000000 75.545398 -5.327888 18.112765 -13.480836 32.830711 -6.429712 1.193064 -1.233942 32.341256 7.125000 0.000000 0.000000 
10.925149 17.703905 -8.256507 -1.100929 -5.159309 12.350550 -18.186112 -8.488021 -4.144549 -0.926868 1.381440 5.432642 0.390684 -2.709854 -7.481799 8.077200 -16.175700 -52.840200 22.197406 6.669026 -2.683335 0.922890 -0.802182 6.672005 -0.291206 1.397107 -8.879321 -3.586300 11.588600 -34.291500 0.460365 -0.921408 -5.851381 1.714855 -0.479069 2.655911 7.455031 -13.384295 7.700902 2.896900 -6.520800 3.872500 -81.964621 -4.369139 -19.324420 0.571939 -5.188608 -0.504058 1.008221 0.652801 74.038475 -7.125000 0.000000 0.000000 75.607540 -4.103337 14.761642 -8.573253 27.767410 -4.698015 0.957875 -1.243394 34.012596 7.125000 0.000000 0.000000 
10.914287 17.703145 -8.238803 -1.185003 -5.203864 12.446150 -18.062989 -8.525319 -4.126207 -0.930699 1.370732 5.401147 0.392808 -2.665496 -7.564758 8.052200 -16.157500 -52.750600 22.331419 6.601914 -2.713463 0.923108 -0.794598 6.649184 -0.301160 1.524332 -8.893043 -3.527800 11.504000 -33.999100 0.477542 -1.018849 -5.845901 1.583551 -0.548766 2.853785 7.344998 -13.310090 7.798580 2.798400 -6.474500 3.953500 -81.954407 -5.642199 -45.553899 0.395573 -2.117349 -0.325948 1.048844 0.075501 99.816998 -7.125000 0.000000 0.000000 75.812244 -2.783442 8.950852 -3.963766 22.316346 -3.355977 0.678897 -1.245638 38.485676 7.125000 0.000000 0.000000 
10.897995 17.707707 -8.248687 -1.061339 -5.461084 12.485188 -18.083787 -8.623805 -4.304744 -0.928944 1.454159 5.607988 0.389344 -2.480091 -7.740706 8.032900 -16.143400 -52.681100 22.247748 7.143709 -2.860914 0.921191 -0.882781 6.845071 -0.291344 1.252306 -8.992543 -3.555000 11.543400 -34.135200 0.466898 -1.008729 -5.883854 1.592348 -0.549546 2.705744 7.222202 -13.293113 7.929052 2.673000 -6.456000 4.080100 -82.149460 -5.135398 -71.786980 2.918965 -2.598445 -0.411182 0.871501 -0.489767 126.438425 -7.125000 0.000000 0.000000 76.130094 -1.470430 -0.140255 -0.236200 16.824273 -2.432245 0.403343 -1.233226 45.520383 7.125000 0.000000 0.000000 
